{
  "asset": {
    "version": "2.0",
    "generator": "Sketchup glTF Exporter v1.2.6 by Centaur"
  },
  "scene": 0,
  "scenes": [
    {
      "nodes": [0]
    }
  ],
  "samplers": [{}],
  "nodes": [
    {
      "name": "root",
      "children": [1],
      "mesh": 1
    },
    {
      "name": "Loading Dock",
      "mesh": 0
    }
  ],
  "materials": [
    {
      "pbrMetallicRoughness": {
        "baseColorFactor": [0.2176, 0.2176, 0.2176, 1.0],
        "metallicFactor": 0.1,
        "roughnessFactor": 0.9
      },
      "name": "default material",
      "doubleSided": true
    },
    {
      "pbrMetallicRoughness": {
        "baseColorFactor": [0.0, 0.0, 0.6121, 1.0],
        "metallicFactor": 0.1,
        "roughnessFactor": 0.9
      },
      "name": "Color I06"
    },
    {
      "pbrMetallicRoughness": {
        "baseColorFactor": [0.0, 0.325, 0.325, 1.0],
        "metallicFactor": 0.1,
        "roughnessFactor": 0.9
      },
      "name": "Color H07"
    },
    {
      "pbrMetallicRoughness": {
        "baseColorFactor": [1.0, 1.0, 1.0, 1.0],
        "metallicFactor": 0.1,
        "roughnessFactor": 0.9
      },
      "name": "Color M00"
    },
    {
      "pbrMetallicRoughness": {
        "baseColorFactor": [1.0, 0.2158, 0.0, 1.0],
        "metallicFactor": 0.1,
        "roughnessFactor": 0.9
      },
      "name": "Color C05"
    },
    {
      "pbrMetallicRoughness": {
        "baseColorFactor": [0.1304, 0.1304, 1.0, 1.0],
        "metallicFactor": 0.1,
        "roughnessFactor": 0.9
      },
      "name": "Color I03"
    },
    {
      "pbrMetallicRoughness": {
        "baseColorFactor": [1.0, 0.0, 0.0, 1.0],
        "metallicFactor": 0.1,
        "roughnessFactor": 0.9
      },
      "name": "Color A05"
    }
  ],
  "meshes": [
    {
      "primitives": [
        {
          "attributes": {
            "POSITION": 0,
            "NORMAL": 1
          },
          "indices": 2,
          "mode": 4,
          "material": 0
        }
      ]
    },
    {
      "primitives": [
        {
          "attributes": {
            "POSITION": 0,
            "NORMAL": 1
          },
          "indices": 3,
          "mode": 4,
          "material": 0
        },
        {
          "attributes": {
            "POSITION": 0,
            "NORMAL": 1
          },
          "indices": 4,
          "mode": 4,
          "material": 1
        },
        {
          "attributes": {
            "POSITION": 0,
            "NORMAL": 1
          },
          "indices": 5,
          "mode": 4,
          "material": 2
        },
        {
          "attributes": {
            "POSITION": 0,
            "NORMAL": 1
          },
          "indices": 6,
          "mode": 4,
          "material": 3
        },
        {
          "attributes": {
            "POSITION": 0,
            "NORMAL": 1
          },
          "indices": 7,
          "mode": 4,
          "material": 4
        },
        {
          "attributes": {
            "POSITION": 0,
            "NORMAL": 1
          },
          "indices": 8,
          "mode": 4,
          "material": 5
        },
        {
          "attributes": {
            "POSITION": 0,
            "NORMAL": 1
          },
          "indices": 9,
          "mode": 4,
          "material": 6
        }
      ]
    }
  ],
  "accessors": [
    {
      "bufferView": 0,
      "componentType": 5126,
      "count": 9254,
      "type": "VEC3",
      "min": [
        0.046733209698122634, -2.5094473161712297e-16, -1.154893124456048
      ],
      "max": [2.203327353154308, 0.10000000000000007, -0.003064234115769111]
    },
    {
      "bufferView": 1,
      "componentType": 5126,
      "count": 9254,
      "type": "VEC3",
      "min": [-1.0, -1.0, -1.0],
      "max": [1.0, 1.0, 1.0]
    },
    {
      "bufferView": 2,
      "componentType": 5123,
      "count": 4782,
      "type": "SCALAR"
    },
    {
      "bufferView": 2,
      "componentType": 5123,
      "count": 8640,
      "type": "SCALAR",
      "byteOffset": 9564
    },
    {
      "bufferView": 2,
      "componentType": 5123,
      "count": 144,
      "type": "SCALAR",
      "byteOffset": 26844
    },
    {
      "bufferView": 2,
      "componentType": 5123,
      "count": 1773,
      "type": "SCALAR",
      "byteOffset": 27132
    },
    {
      "bufferView": 2,
      "componentType": 5123,
      "count": 6,
      "type": "SCALAR",
      "byteOffset": 30678
    },
    {
      "bufferView": 2,
      "componentType": 5123,
      "count": 18,
      "type": "SCALAR",
      "byteOffset": 30690
    },
    {
      "bufferView": 2,
      "componentType": 5123,
      "count": 90,
      "type": "SCALAR",
      "byteOffset": 30726
    },
    {
      "bufferView": 2,
      "componentType": 5123,
      "count": 252,
      "type": "SCALAR",
      "byteOffset": 30906
    }
  ],
  "bufferViews": [
    {
      "buffer": 0,
      "byteLength": 111048,
      "target": 34962,
      "byteStride": 12
    },
    {
      "buffer": 0,
      "byteOffset": 111048,
      "byteLength": 111048,
      "target": 34962,
      "byteStride": 12
    },
    {
      "buffer": 0,
      "byteOffset": 222096,
      "byteLength": 31410,
      "target": 34963
    }
  ],
  "buffers": [
    {
      "uri": "data:application/octet-stream;base64,",
      "byteLength": 253506
    }
  ]
}
